<svg data-v-423bf9ae="" xmlns="http://www.w3.org/2000/svg" viewBox="0 0 408 90" class="iconLeft"><!----><!----><defs data-v-423bf9ae=""><linearGradient data-v-423bf9ae="" gradientTransform="rotate(25)" id="a4a47161-4ec1-4ec0-95c6-ab60e68f0cb1" x1="0%" y1="0%" x2="100%" y2="0%"><stop data-v-423bf9ae="" offset="0%" style="stop-color: rgb(214, 214, 214); stop-opacity: 1;"></stop><stop data-v-423bf9ae="" offset="100%" style="stop-color: rgb(245, 213, 126); stop-opacity: 1;"></stop></linearGradient></defs><g data-v-423bf9ae="" id="7154178c-c2a6-48cf-9eff-d08e881da6a6" fill="url(#a4a47161-4ec1-4ec0-95c6-ab60e68f0cb1)" transform="matrix(5.791505813598633,0,0,5.791505813598633,102.28058624267578,-5.270272254943848)"><path d="M4.16 13.72L0.22 13.72L0.22 13.10L1.37 12.82L1.37 4.75L0.22 4.59L0.22 4.05L2.48 3.50L3.01 3.50L3.01 12.82L4.16 13.10L4.16 13.72ZM8.08 13.86L8.08 13.86Q6.34 13.86 5.57 12.91L5.57 12.91L5.57 12.91Q4.80 11.96 4.80 10.30L4.80 10.30L4.80 10.30Q4.80 8.44 5.65 7.57L5.65 7.57L5.65 7.57Q6.50 6.71 7.94 6.71L7.94 6.71L7.94 6.71Q9.37 6.71 10.02 7.35L10.02 7.35L10.02 7.35Q10.68 7.99 10.68 9.37L10.68 9.37L10.68 9.37Q10.68 9.84 10.64 10.22L10.64 10.22L6.57 10.22L6.57 10.60L6.57 10.60Q6.57 11.82 7.06 12.37L7.06 12.37L7.06 12.37Q7.56 12.92 8.51 12.92L8.51 12.92L8.51 12.92Q9.35 12.92 10.50 12.60L10.50 12.60L10.61 13.15L10.61 13.15Q9.55 13.86 8.08 13.86L8.08 13.86ZM6.59 9.55L9.00 9.41L9.00 9.10L9.00 9.10Q9.00 8.34 8.79 7.96L8.79 7.96L8.79 7.96Q8.57 7.57 8.01 7.57L8.01 7.57L8.01 7.57Q7.24 7.57 6.94 8.04L6.94 8.04L6.94 8.04Q6.64 8.51 6.59 9.55L6.59 9.55ZM15.58 13.55L15.58 13.55Q15.16 13.68 14.53 13.76L14.53 13.76L14.53 13.76Q13.90 13.85 13.52 13.85L13.52 13.85L13.52 13.85Q12.84 13.85 12.58 13.54L12.58 13.54L12.58 13.54Q12.32 13.23 12.32 12.74L12.32 12.74L12.32 7.74L11.31 7.74L11.31 7.14L12.46 6.68L13.20 5.28L13.94 5.28L13.94 6.83L15.78 6.83L15.78 7.84L13.94 7.73L13.94 12.66L15.58 12.96L15.58 13.55ZM23.14 13.41L23.14 13.41Q22.51 13.64 21.92 13.75L21.92 13.75L21.92 13.75Q21.34 13.86 20.57 13.86L20.57 13.86L20.57 13.86Q18.48 13.86 17.46 12.61L17.46 12.61L17.46 12.61Q16.45 11.35 16.45 9.37L16.45 9.37L16.45 9.37Q16.45 7.39 17.45 6.16L17.45 6.16L17.45 6.16Q18.45 4.93 20.57 4.93L20.57 4.93L20.57 4.93Q21.36 4.93 21.92 5.03L21.92 5.03L21.92 5.03Q22.48 5.14 23.14 5.33L23.14 5.33L23.00 7.35L22.37 7.35L22.02 5.98L22.02 5.98Q21.46 5.81 20.82 5.81L20.82 5.81L20.82 5.81Q19.33 5.81 18.76 6.79L18.76 6.79L18.76 6.79Q18.19 7.77 18.19 9.37L18.19 9.37L18.19 9.37Q18.19 10.88 18.78 11.91L18.78 11.91L18.78 11.91Q19.38 12.95 20.76 12.95L20.76 12.95L20.76 12.95Q21.38 12.95 22.02 12.77L22.02 12.77L22.37 11.56L23.03 11.56L23.14 13.41ZM27.82 13.72L23.88 13.72L23.88 13.10L25.03 12.82L25.03 4.75L23.88 4.59L23.88 4.05L26.14 3.50L26.67 3.50L26.67 12.82L27.82 13.10L27.82 13.72ZM30.38 5.73L30.38 5.73Q29.95 5.73 29.62 5.43L29.62 5.43L29.62 5.43Q29.30 5.14 29.30 4.72L29.30 4.72L29.30 4.72Q29.30 4.28 29.62 3.97L29.62 3.97L29.62 3.97Q29.95 3.65 30.38 3.65L30.38 3.65L30.38 3.65Q30.80 3.65 31.11 3.97L31.11 3.97L31.11 3.97Q31.42 4.28 31.42 4.72L31.42 4.72L31.42 4.72Q31.42 5.14 31.11 5.43L31.11 5.43L31.11 5.43Q30.80 5.73 30.38 5.73L30.38 5.73ZM32.34 13.72L28.42 13.72L28.42 13.10L29.57 12.82L29.57 7.94L28.42 7.78L28.42 7.24L30.67 6.71L31.21 6.71L31.21 12.82L32.34 13.10L32.34 13.72ZM36.26 13.86L36.26 13.86Q34.52 13.86 33.75 12.91L33.75 12.91L33.75 12.91Q32.98 11.96 32.98 10.30L32.98 10.30L32.98 10.30Q32.98 8.44 33.83 7.57L33.83 7.57L33.83 7.57Q34.68 6.71 36.12 6.71L36.12 6.71L36.12 6.71Q37.55 6.71 38.21 7.35L38.21 7.35L38.21 7.35Q38.86 7.99 38.86 9.37L38.86 9.37L38.86 9.37Q38.86 9.84 38.82 10.22L38.82 10.22L34.75 10.22L34.75 10.60L34.75 10.60Q34.75 11.82 35.24 12.37L35.24 12.37L35.24 12.37Q35.74 12.92 36.69 12.92L36.69 12.92L36.69 12.92Q37.53 12.92 38.68 12.60L38.68 12.60L38.79 13.15L38.79 13.15Q37.73 13.86 36.26 13.86L36.26 13.86ZM34.78 9.55L37.18 9.41L37.18 9.10L37.18 9.10Q37.18 8.34 36.97 7.96L36.97 7.96L36.97 7.96Q36.75 7.57 36.19 7.57L36.19 7.57L36.19 7.57Q35.42 7.57 35.12 8.04L35.12 8.04L35.12 8.04Q34.82 8.51 34.78 9.55L34.78 9.55ZM42.42 7.27L42.42 7.27Q42.81 7.08 43.55 6.90L43.55 6.90L43.55 6.90Q44.30 6.71 44.90 6.71L44.90 6.71L44.90 6.71Q45.68 6.71 46.18 7.06L46.18 7.06L46.18 7.06Q46.68 7.41 46.68 8.18L46.68 8.18L46.68 12.82L47.84 13.17L47.84 13.72L44.09 13.72L44.09 13.17L45.04 12.82L45.04 8.58L45.04 8.58Q45.04 8.22 44.95 8.04L44.95 8.04L44.95 8.04Q44.86 7.85 44.62 7.79L44.62 7.79L44.62 7.79Q44.38 7.73 43.92 7.73L43.92 7.73L43.92 7.73Q43.13 7.73 42.42 7.92L42.42 7.92L42.42 12.82L43.37 13.17L43.37 13.72L39.63 13.72L39.63 13.17L40.78 12.82L40.78 7.92L39.63 7.78L39.63 7.22L41.89 6.71L42.42 6.71L42.42 7.27ZM52.56 13.55L52.56 13.55Q52.14 13.68 51.51 13.76L51.51 13.76L51.51 13.76Q50.88 13.85 50.50 13.85L50.50 13.85L50.50 13.85Q49.81 13.85 49.55 13.54L49.55 13.54L49.55 13.54Q49.29 13.23 49.29 12.74L49.29 12.74L49.29 7.74L48.29 7.74L48.29 7.14L49.43 6.68L50.18 5.28L50.92 5.28L50.92 6.83L52.75 6.83L52.75 7.84L50.92 7.73L50.92 12.66L52.56 12.96L52.56 13.55Z"></path></g><defs data-v-423bf9ae=""><linearGradient data-v-423bf9ae="" gradientTransform="rotate(25)" id="a379d07e-105f-461e-9229-71b72d35e5e2" x1="0%" y1="0%" x2="100%" y2="0%"><stop data-v-423bf9ae="" offset="0%" style="stop-color: rgb(214, 214, 214); stop-opacity: 1;"></stop><stop data-v-423bf9ae="" offset="100%" style="stop-color: rgb(245, 213, 126); stop-opacity: 1;"></stop></linearGradient></defs><g data-v-423bf9ae="" id="f0a2750f-6fba-43c4-baaf-e08c5d50517a" transform="matrix(1.0121707916259766,0,0,1.0121707916259766,-7.883541107177734,-5.068656921386719)" stroke="none" fill="url(#a379d07e-105f-461e-9229-71b72d35e5e2)"><path d="M74.2 66.4c2.6 0 4.7-2.1 4.7-4.7V29.1c0-2.6-2.1-4.7-4.7-4.7H25.8c-2.6 0-4.7 2.1-4.7 4.7v32.7c0 2.6 2.1 4.7 4.7 4.7h19v5.8h-3.7c-.6 0-1.1.5-1.1 1.1v3.2c0 .6.5 1.1 1.1 1.1h17.8c.6 0 1.1-.5 1.1-1.1v-3.2c0-.6-.5-1.1-1.1-1.1h-3.7v-5.8h19zM27.5 60V30.8h45V60h-45zM9.1 85.9L19.3 79c.6-.4 1.3 0 1.3.7v3.7h64.3V26c0-.5.2-.9.6-1.1l5-3.3c.3-.2.7 0 .7.4v64.8c0 1.7-1.4 3.2-3.2 3.2H20.6v3.7c0 .7-.8 1.1-1.3.7L9.1 87.3c-.5-.3-.5-1 0-1.4zm70.3-65.7v-3.7H15.1V74c0 .5-.2.9-.6 1.1l-5 3.3c-.3.2-.7 0-.7-.4V13.4c0-1.7 1.4-3.2 3.2-3.2h67.4V6.5c0-.7.8-1.1 1.3-.7l10.2 6.9c.5.3.5 1.1 0 1.4L80.7 21c-.6.3-1.3-.1-1.3-.8z"></path></g><!----></svg>